<svg width="144" height="185" viewBox="0 0 144 185" fill="none" xmlns="http://www.w3.org/2000/svg">
<circle cx="72" cy="71.5" r="71.5" fill="#174278" fill-opacity="0.12"/>
<rect x="43.9505" y="70.0427" width="70" height="98" rx="7" transform="rotate(2.5 43.9505 70.0427)" fill="#174278" fill-opacity="0.53" stroke="#174278" stroke-width="2"/>
<rect x="2.33591" y="64.1807" width="74" height="102" rx="9" transform="rotate(-7.5 2.33591 64.1807)" fill="#FAFAFA" stroke="#174278" stroke-width="2"/>
<path d="M4.5021 72.9732C3.9254 68.5927 7.00897 64.5741 11.3895 63.9974L66.9104 56.6879C71.2908 56.1112 75.3094 59.1948 75.8861 63.5753L77.844 78.4469L6.46 87.8448L4.5021 72.9732Z" fill="#174278" fill-opacity="0.53"/>
<rect x="90.3662" y="58.643" width="3" height="10" rx="1.5" transform="rotate(82.5 90.3662 58.643)" fill="#174278"/>
<rect x="62.9696" y="42.0773" width="3" height="10" rx="1.5" transform="rotate(-7.5 62.9696 42.0773)" fill="#174278"/>
<rect x="80.5472" y="44.8063" width="3" height="10" rx="1.5" transform="rotate(37.5 80.5472 44.8063)" fill="#174278"/>
<rect x="13.9222" y="90.8969" width="58" height="4" rx="2" transform="rotate(-7.5 13.9222 90.8969)" fill="#174278" fill-opacity="0.72"/>
<rect x="16.5327" y="110.726" width="58" height="4" rx="2" transform="rotate(-7.5 16.5327 110.726)" fill="#174278" fill-opacity="0.72"/>
<rect x="19.1433" y="130.555" width="58" height="4" rx="2" transform="rotate(-7.5 19.1433 130.555)" fill="#174278" fill-opacity="0.72"/>
<rect x="14.9664" y="98.8285" width="21" height="4" rx="2" transform="rotate(-7.5 14.9664 98.8285)" fill="#174278" fill-opacity="0.53"/>
<rect x="17.577" y="118.657" width="21" height="4" rx="2" transform="rotate(-7.5 17.577 118.657)" fill="#174278" fill-opacity="0.53"/>
<rect x="20.1875" y="138.486" width="21" height="4" rx="2" transform="rotate(-7.5 20.1875 138.486)" fill="#174278" fill-opacity="0.53"/>
</svg>
